# xmcd
#
# Track frame offsets:
#	150
#	21635
#	41532
#	65257
#	82450
#	103815
#	128777
#	143927
#	165170
#	189495
#
# Disc length: 2749 seconds
#
# Revision: 0
# Processed by: cddbd v1.5.2PL0 Copyright (c) Steve Scherf et al.
# Submitted via: audiograbber 1.83.01
#
DISCID=8c0abb0a
DTITLE=Terry Evans - Mississippi Magic [SACD]
DYEAR=2000
DGENRE=Blues
TTITLE0=Big Bad Daddy Good
TTITLE1=Where The Southern Crosses The Dog
TTITLE2=I'd Rather Trick My Own Self
TTITLE3=Don't Let The Green Grass Fool You
TTITLE4=Blues and Wine
TTITLE5=I Want To Love You
TTITLE6=Mellow Down Easy
TTITLE7=Let Love Begin
TTITLE8=You Better Get Your Shit Together
TTITLE9=Where We Gonna Go
EXTD=
EXTT0=
EXTT1=
EXTT2=
EXTT3=
EXTT4=
EXTT5=
EXTT6=
EXTT7=
EXTT8=
EXTT9=
PLAYORDER=
